<svg xmlns="http://www.w3.org/2000/svg" width="24" height="24" fill="none"><path fill="#000" d="M17 3 5.72 14.28c-.269.269-.403.403-.519.552a2.997 2.997 0 0 0-.273.42c-.089.166-.157.344-.294.699l-.076.198c.147-.383.221-.574.347-.662a.5.5 0 0 1 .38-.08c.15.028.295.173.585.463l2.26 2.26c.29.29.435.435.464.586a.5.5 0 0 1-.08.379c-.084.12-.262.192-.61.326l.145-.055c.355-.137.533-.205.699-.294.147-.08.288-.17.42-.273.149-.116.283-.25.552-.52L21 7a2.828 2.828 0 1 0-4-4Z"/><path stroke="#000" stroke-linecap="round" stroke-linejoin="round" stroke-width="2" d="M21 21h-8m-10.5.5 2.134-5.55M2.5 21.5l2.058-5.351M2.5 21.5l5.351-2.058.054-.02M2.5 21.5l5.405-2.079m-3.27-3.47c.136-.355.204-.533.293-.699.08-.147.17-.288.273-.42.116-.149.25-.283.52-.552L17 3a2.828 2.828 0 0 1 4 4L9.72 18.28c-.269.269-.403.403-.552.519a3.005 3.005 0 0 1-.42.273c-.166.089-.344.157-.699.294l-.144.055m-3.27-3.47-.077.198m0 0c.147-.383.221-.574.347-.662a.5.5 0 0 1 .38-.08c.15.028.295.173.585.463l2.26 2.26c.29.29.435.435.464.586a.5.5 0 0 1-.08.379c-.084.12-.262.192-.61.326"/></svg>